<svg xmlns="http://www.w3.org/2000/svg" xmlns:xlink="http://www.w3.org/1999/xlink" version="1.1" x="0px" y="0px" viewBox="0 0 5 5" enable-background="new 0 0 5 5" xml:space="preserve"><g><path fill-rule="evenodd" clip-rule="evenodd" fill="#000000" d="M2.996,2.089c0.082-0.183-0.008-0.376-0.062-0.55   C2.933,1.536,2.762,1.677,2.66,1.755c-0.071,0.052-0.133,0.1-0.158,0.185c-0.04,0.135,0.064,0.269,0.178,0.32   C2.818,2.326,2.944,2.204,2.996,2.089z"/><path fill-rule="evenodd" clip-rule="evenodd" fill="#000000" d="M2.972,3.506c0.219,0.062,0.421-0.074,0.606-0.164   C3.583,3.34,3.391,3.173,3.29,3.072C3.218,3.002,3.154,2.94,3.053,2.928c-0.157-0.02-0.291,0.118-0.328,0.255   C2.677,3.351,2.834,3.469,2.972,3.506z"/><path fill-rule="evenodd" clip-rule="evenodd" fill="#000000" d="M1.607,3.14c-0.124,0.103-0.13,0.275-0.153,0.421   c0,0.003,0.174-0.04,0.275-0.058c0.069-0.012,0.133-0.026,0.181-0.079c0.079-0.082,0.051-0.217-0.014-0.295   C1.821,3.033,1.688,3.075,1.607,3.14z"/><path fill-rule="evenodd" clip-rule="evenodd" fill="#000000" d="M1.926,2.296C2.05,2.305,2.201,2.241,2.231,2.109   c0.022-0.086-0.008-0.158-0.043-0.235C2.138,1.758,2.062,1.556,2.06,1.557C1.93,1.68,1.757,1.801,1.741,1.997   C1.73,2.119,1.775,2.283,1.926,2.296z"/><path fill-rule="evenodd" clip-rule="evenodd" fill="#000000" d="M3.955,2.593c0.005-0.004-0.281,0.062-0.228,0.186   c0.025,0.059,0.104,0.079,0.147,0.033C3.933,2.748,3.929,2.668,3.955,2.593z"/><path fill-rule="evenodd" clip-rule="evenodd" fill="#000000" d="M2.562,0.819C2.561,0.812,2.493,1.097,2.626,1.105   c0.063,0.003,0.118-0.059,0.097-0.12C2.692,0.908,2.618,0.875,2.562,0.819z"/><path fill-rule="evenodd" clip-rule="evenodd" fill="#000000" d="M3.704,1.44c0.008-0.006-0.409,0.091-0.333,0.269   c0.038,0.089,0.152,0.12,0.22,0.049C3.673,1.667,3.667,1.549,3.704,1.44z"/><path fill-rule="evenodd" clip-rule="evenodd" fill="#000000" d="M2.966,0.791c0-0.008-0.104,0.347,0.063,0.364   c0.078,0.009,0.152-0.062,0.127-0.141C3.125,0.913,3.035,0.866,2.966,0.791z"/><path fill-rule="evenodd" clip-rule="evenodd" fill="#000000" d="M2.095,0.827c0.007-0.006-0.324,0.158-0.223,0.292   c0.048,0.066,0.152,0.069,0.19-0.002C2.116,1.023,2.086,0.925,2.095,0.827z"/><path fill-rule="evenodd" clip-rule="evenodd" fill="#000000" d="M1.097,3.165c-0.009,0,0.383,0.114,0.402-0.072   c0.01-0.09-0.07-0.17-0.158-0.142C1.228,2.987,1.177,3.092,1.097,3.165z"/><path fill-rule="evenodd" clip-rule="evenodd" fill="#000000" d="M3.881,3.134c0.008,0.009-0.236-0.497-0.443-0.347   c-0.097,0.07-0.105,0.228,0,0.291C3.582,3.16,3.73,3.116,3.881,3.134z"/><path fill-rule="evenodd" clip-rule="evenodd" fill="#000000" d="M1.624,1.046c0-0.01-0.122,0.348,0.047,0.375   c0.083,0.014,0.159-0.058,0.137-0.14C1.779,1.178,1.688,1.125,1.624,1.046z"/><path fill-rule="evenodd" clip-rule="evenodd" fill="#000000" d="M1.136,1.545C1.132,1.534,1.139,2.002,1.347,1.962   c0.1-0.02,0.161-0.135,0.103-0.22C1.373,1.63,1.243,1.608,1.136,1.545z"/><path fill-rule="evenodd" clip-rule="evenodd" fill="#000000" d="M1.046,2.089C1.038,2.073,1.159,2.791,1.471,2.68   c0.15-0.055,0.218-0.243,0.104-0.362C1.431,2.167,1.229,2.164,1.046,2.089z"/><path fill-rule="evenodd" clip-rule="evenodd" fill="#000000" d="M3.848,1.808C3.864,1.8,3.105,1.975,3.245,2.301   C3.312,2.455,3.521,2.514,3.64,2.387C3.793,2.222,3.78,2.006,3.848,1.808z"/><path fill-rule="evenodd" clip-rule="evenodd" fill="#000000" d="M2.391,0.918C2.382,0.9,2.083,1.203,2.127,1.398   c0.03,0.146,0.104,0.309,0.273,0.316c0.176,0.008,0.235-0.211,0.21-0.343C2.578,1.203,2.454,1.072,2.391,0.918z"/><path fill-rule="evenodd" clip-rule="evenodd" fill="#000000" d="M2.125,4.164c-0.022-0.012-0.027-0.036-0.021-0.06   C2.106,4.089,2.112,4.069,2.12,4.05c0.004-0.013,0.008-0.029,0.012-0.045c0.007-0.032,0.009-0.052,0.015-0.086   c0.008-0.064,0.011-0.128,0.017-0.189c0.005-0.087,0.011-0.174,0.011-0.259c0-0.021,0-0.043-0.003-0.063c0-0.001,0-0.007,0-0.01   s0-0.007,0-0.012C2.17,3.377,2.168,3.367,2.167,3.357C2.163,3.316,2.154,3.274,2.141,3.236c0-0.003-0.001-0.003-0.001-0.004   C2.138,3.231,2.138,3.229,2.138,3.228C2.135,3.222,2.133,3.216,2.132,3.213c-0.003-0.01-0.008-0.018-0.012-0.028   C2.109,3.167,2.102,3.147,2.09,3.13C2.088,3.126,2.086,3.121,2.082,3.117C2.08,3.114,2.076,3.111,2.076,3.11   c-0.005-0.008-0.014-0.019-0.02-0.026c-0.012-0.013-0.024-0.027-0.038-0.04c0-0.001-0.007-0.006-0.01-0.007   c0-0.001-0.002-0.002-0.002-0.002c-0.008-0.006-0.013-0.011-0.02-0.017C1.973,3.011,1.959,3.002,1.944,2.994   C1.94,2.991,1.936,2.989,1.931,2.986c-0.001,0-0.003-0.002-0.005-0.003C1.92,2.982,1.916,2.98,1.911,2.978   C1.896,2.973,1.88,2.967,1.867,2.964C1.852,2.957,1.836,2.952,1.82,2.95C1.811,2.948,1.804,2.947,1.796,2.946L1.795,2.944   C1.789,2.942,1.779,2.942,1.772,2.941C1.771,2.94,1.771,2.94,1.769,2.94l0,0C1.766,2.939,1.76,2.939,1.757,2.938   c-0.008,0-0.017-0.003-0.023-0.004C1.719,2.933,1.703,2.931,1.688,2.928c-0.034-0.005-0.068-0.011-0.1-0.016   C1.581,2.91,1.573,2.909,1.565,2.908c0.013,0.002-0.018-0.003-0.003,0C1.552,2.905,1.54,2.904,1.531,2.901   C1.514,2.898,1.499,2.896,1.484,2.891C1.417,2.874,1.352,2.85,1.293,2.812C1.226,2.771,1.17,2.711,1.127,2.645   C1.119,2.632,1.139,2.618,1.149,2.63C1.224,2.715,1.316,2.776,1.425,2.8c0.03,0.006,0.059,0.011,0.094,0.014   c0.033,0.003,0.066,0.005,0.099,0.005c0.065,0,0.132,0.001,0.195,0.012c0.073,0.011,0.144,0.026,0.206,0.065   c0.063,0.032,0.113,0.081,0.155,0.138C2.168,2.991,2.16,2.951,2.15,2.912C2.145,2.901,2.141,2.89,2.138,2.879   c0-0.003,0-0.004,0-0.004C2.137,2.874,2.137,2.874,2.137,2.873c-0.002-0.002-0.003-0.007-0.004-0.01   C2.127,2.849,2.121,2.836,2.112,2.82C2.105,2.808,2.099,2.797,2.09,2.786C2.089,2.782,2.082,2.772,2.08,2.771   C2.076,2.765,2.071,2.759,2.066,2.753c-0.04-0.05-0.088-0.096-0.134-0.141C1.886,2.569,1.84,2.521,1.799,2.474   C1.722,2.378,1.652,2.271,1.652,2.145c0-0.01,0.016-0.011,0.016-0.001c0.008,0.081,0.045,0.157,0.103,0.214   c0.042,0.045,0.093,0.08,0.143,0.116C1.97,2.512,2.026,2.552,2.076,2.6c0.048,0.047,0.092,0.098,0.128,0.156   C2.212,2.771,2.221,2.784,2.228,2.8c0-0.029,0-0.06,0.002-0.088C2.236,2.61,2.251,2.509,2.264,2.408   c0.014-0.098,0.033-0.197,0.04-0.295c0.004-0.051,0.002-0.101,0.004-0.15c0.003-0.053,0-0.103-0.011-0.152   C2.292,1.789,2.326,1.777,2.333,1.799c0.016,0.036,0.029,0.073,0.041,0.109c0.014,0.035,0.024,0.069,0.03,0.107   c0.008,0.073,0.015,0.149,0.012,0.222c-0.01,0.148-0.034,0.292-0.043,0.44C2.369,2.727,2.368,2.776,2.368,2.823   c0,0.025,0,0.05,0.003,0.074c0,0.005,0,0.011,0,0.017c0,0.001,0,0.008,0.001,0.01c0.002,0.01,0.002,0.018,0.002,0.027   c0.009,0.084,0.025,0.163,0.045,0.245c0.001-0.008,0.004-0.014,0.004-0.02c0.028-0.136,0.094-0.263,0.172-0.375   C2.67,2.688,2.757,2.583,2.84,2.479c0.02-0.029,0.041-0.057,0.062-0.085c0.02-0.028,0.036-0.059,0.058-0.087   C2.98,2.277,2.997,2.242,3.013,2.216c0.021-0.029,0.043-0.06,0.055-0.095c0.004-0.017,0.027-0.008,0.023,0.01   c-0.006,0.032-0.005,0.063-0.01,0.098C3.078,2.263,3.066,2.296,3.055,2.329C3.008,2.473,2.921,2.592,2.832,2.711   c0.163-0.064,0.345-0.086,0.513-0.11c0.061-0.011,0.12-0.022,0.181-0.035C3.554,2.559,3.583,2.551,3.61,2.542   C3.616,2.541,3.619,2.54,3.622,2.539c0.002,0,0.003,0,0.003,0c0.008-0.004,0.014-0.006,0.019-0.008   C3.658,2.525,3.668,2.52,3.682,2.515c0.024-0.011,0.051-0.023,0.076-0.036C3.76,2.475,3.764,2.473,3.769,2.471   c0,0,0.002-0.004,0.005-0.004c0.003-0.004,0.01-0.008,0.015-0.012c0.009-0.007,0.02-0.017,0.031-0.024   C3.864,2.388,3.905,2.34,3.929,2.283C3.934,2.271,3.956,2.276,3.95,2.289C3.936,2.334,3.921,2.376,3.9,2.416   C3.881,2.454,3.856,2.487,3.826,2.517C3.65,2.702,3.372,2.718,3.136,2.764C3.074,2.772,3.017,2.787,2.956,2.805   c-0.01,0.001-0.018,0.003-0.026,0.007c-0.002,0-0.01,0.003-0.013,0.005C2.904,2.819,2.893,2.823,2.883,2.83   C2.854,2.841,2.826,2.851,2.8,2.866C2.788,2.874,2.772,2.881,2.762,2.89C2.756,2.892,2.75,2.897,2.745,2.899   C2.742,2.902,2.74,2.904,2.739,2.905C2.734,2.908,2.731,2.91,2.726,2.914c-0.028,0.021-0.054,0.043-0.08,0.068   C2.638,2.997,2.63,3.011,2.623,3.025C2.621,3.031,2.619,3.036,2.618,3.041C2.616,3.042,2.613,3.043,2.613,3.044   C2.611,3.05,2.608,3.055,2.606,3.06C2.6,3.075,2.594,3.091,2.588,3.104C2.577,3.136,2.566,3.17,2.559,3.203   c-0.001,0.01-0.004,0.019-0.007,0.028l0,0c0,0.005,0,0.008-0.001,0.013C2.549,3.262,2.545,3.279,2.543,3.297   c-0.003,0.039-0.003,0.08-0.003,0.121c0.001,0.024,0.003,0.05,0.003,0.075c0,0.001,0.001,0.01,0.001,0.011   c0.001,0.005,0.001,0.008,0.001,0.013c0,0.012,0.005,0.022,0.005,0.033c0.005,0.048,0.013,0.096,0.021,0.142   C2.592,3.785,2.636,3.99,2.647,4.085C2.647,4.085,2.413,4.301,2.125,4.164z"/><path fill-rule="evenodd" clip-rule="evenodd" fill="#000000" d="M3.367,1.211c-0.008-0.086-0.04-0.164-0.07-0.243L3.293,0.963   C3.291,0.949,3.267,0.956,3.27,0.97c0.014,0.042,0.016,0.088,0.016,0.132c0,0.018,0,0.037-0.002,0.056   c0,0.012-0.002,0.021-0.005,0.029c0,0.004-0.001,0.008-0.003,0.016c0,0.001,0,0.003,0,0.006c0,0,0,0.001-0.001,0.003   C3.263,1.276,3.242,1.344,3.221,1.41C3.218,1.412,3.218,1.417,3.217,1.419c-0.021-0.05-0.061-0.093-0.106-0.123   C3.072,1.264,3.023,1.248,2.975,1.229c-0.046-0.021-0.1-0.051-0.133-0.093C2.832,1.12,2.823,1.106,2.811,1.091   C2.805,1.079,2.786,1.088,2.792,1.102c0.031,0.053,0.069,0.098,0.11,0.144C2.938,1.281,2.978,1.317,3.02,1.35   c0.006,0.002,0.01,0.007,0.015,0.009c0.002,0.005,0.019,0.017,0.004,0.006c0.007,0.005,0.015,0.011,0.022,0.017   c0,0.001,0,0.001,0,0.001c0.002,0.003,0.002,0.004,0.005,0.005c0.008,0.007,0.018,0.017,0.023,0.024   c0.006,0.005,0.008,0.008,0.01,0.013c0,0.001,0.001,0.001,0.001,0.001c0.003,0.004,0.005,0.008,0.005,0.009   c0.006,0.009,0.012,0.02,0.018,0.032C3.125,1.471,3.128,1.477,3.13,1.481c0,0.002,0,0.002,0,0.003   c0.002,0.003,0.003,0.007,0.003,0.012c0.009,0.031,0.013,0.067,0.023,0.098c0,0.005,0.001,0.009,0.002,0.012   c-0.001,0.003-0.002,0.006-0.002,0.01c-0.022,0.083-0.036,0.167-0.04,0.252c0,0.019,0.024,0.021,0.034,0.007   c0.031-0.079,0.064-0.151,0.103-0.225C3.29,1.581,3.322,1.515,3.344,1.441c0.011-0.038,0.019-0.075,0.024-0.116   C3.373,1.287,3.371,1.249,3.367,1.211z"/><path fill-rule="evenodd" clip-rule="evenodd" fill="#000000" d="M1.945,1.291C1.92,1.348,1.864,1.389,1.82,1.43   C1.771,1.472,1.727,1.515,1.683,1.561c-0.006,0.006-0.01,0.009-0.015,0.014C1.663,1.568,1.657,1.557,1.652,1.551   c-0.02-0.033-0.044-0.063-0.071-0.092c-0.053-0.056-0.112-0.107-0.14-0.18C1.434,1.265,1.413,1.276,1.42,1.29   c0.023,0.07,0.057,0.139,0.097,0.201c0.02,0.034,0.039,0.061,0.057,0.091c0.01,0.016,0.017,0.03,0.025,0.047   c0.002,0.007,0.005,0.013,0.008,0.021C1.591,1.673,1.577,1.697,1.565,1.723C1.537,1.785,1.53,1.854,1.532,1.921   c0.002,0.014,0.002,0.025,0.004,0.036c0.003,0.016,0.027,0.02,0.029,0.002c0.007-0.036,0.012-0.07,0.026-0.102   c0.011-0.026,0.028-0.055,0.043-0.081C1.642,1.765,1.653,1.752,1.663,1.74c0.003-0.006,0.008-0.01,0.012-0.019   c0.001-0.003,0.004-0.006,0.008-0.008C1.684,1.713,1.686,1.71,1.686,1.709c0.02-0.021,0.042-0.044,0.06-0.067   c0.023-0.022,0.046-0.044,0.066-0.067C1.836,1.551,1.862,1.525,1.88,1.5c0.04-0.057,0.067-0.114,0.083-0.179   C1.965,1.315,1.968,1.309,1.97,1.304C1.974,1.289,1.954,1.278,1.945,1.291z"/></g></svg>